<svg xmlns="http://www.w3.org/2000/svg" xmlns:xlink="http://www.w3.org/1999/xlink" version="1.1" x="0px" y="0px" viewBox="0 0 100 125" enable-background="new 0 0 100 100" xml:space="preserve"><path d="M81.575,50.228c0,0.073-0.01,0.209-0.146,0.335c-3.621,3.234-13.856,12.661-13.856,12.661  C66.525,64.144,65.186,65,63.804,65H64V36h-0.196c1.382,0,2.721,0.625,3.768,1.546c0,0,10.225,9.062,13.856,12.264  C81.564,49.926,81.575,50.155,81.575,50.228z M48,36v29h14V36H48z M31,36v29h15V36H31z M26,36v29h3V36H26z M13,36v29h11V36H13z   M91.036,59.04L75.913,72.384C72.564,75.335,68.263,77,63.804,77H13.464c-0.855,0-1.694-0.139-2.428-0.579l-5.347-3.163  c-0.439-0.387-0.691-0.981-0.691-1.567c0-0.586,0.251-0.982,0.691-1.37l5.396-2.867C11.788,67.061,12.579,67,13.384,67h50.42  c1.894,0,3.726-1.008,5.149-2.264c0,0,10.246-9.227,13.867-12.471c0.544-0.481,0.858-1.259,0.848-1.981  c0-0.733-0.314-1.462-0.858-1.943c-3.632-3.202-13.856-12.298-13.856-12.298C67.53,34.786,65.699,34,63.804,34H13.445  c-0.844,0-1.672-0.087-2.399-0.516l-5.358-3.095c-0.439-0.377-0.691-0.928-0.691-1.514c0-0.586,0.251-1.029,0.691-1.416l5.386-2.948  c0.709-0.401,1.51-0.51,2.324-0.51h50.405c4.458,0,8.76,1.424,12.109,4.375l14.893,13.004c1.79,1.57,3.056,3.441,3.684,5.482  C95.829,51.266,94.468,56.015,91.036,59.04z M20,27.999c0-0.576-0.424-1.047-1-1.047s-1,0.471-1,1.047v2.093  c0,0.576,0.424,1.047,1,1.047s1-0.471,1-1.047V27.999z M43,27.999c0-0.576-0.424-1.047-1-1.047s-1,0.471-1,1.047v2.093  c0,0.576,0.424,1.047,1,1.047s1-0.471,1-1.047V27.999z M67.53,28.145c-0.534-0.209-1.151,0.052-1.361,0.586l-0.785,1.936  c-0.22,0.544,0.042,1.151,0.576,1.371c0.136,0.042,0.262,0.073,0.398,0.073c0.408,0,0.806-0.251,0.963-0.659l0.785-1.936  C68.325,28.972,68.064,28.365,67.53,28.145z M20,70.908c0-0.576-0.424-1.047-1-1.047s-1,0.471-1,1.047v2.093  c0,0.576,0.424,1.047,1,1.047s1-0.471,1-1.047V70.908z M43,70.908c0-0.576-0.424-1.047-1-1.047s-1,0.471-1,1.047v2.093  c0,0.576,0.424,1.047,1,1.047s1-0.471,1-1.047V70.908z M68.106,71.243l-0.785-1.936c-0.209-0.544-0.827-0.795-1.361-0.586  c-0.534,0.22-0.795,0.827-0.576,1.361l0.785,1.947c0.157,0.408,0.555,0.659,0.963,0.659c0.136,0,0.262-0.031,0.398-0.084  C68.064,72.394,68.325,71.777,68.106,71.243z M83.919,59.134l-1.497-1.465c-0.419-0.398-1.078-0.387-1.486,0.031  c-0.398,0.408-0.387,1.078,0.031,1.476l1.497,1.455c0.209,0.199,0.471,0.293,0.733,0.293c0.272,0,0.544-0.105,0.753-0.314  C84.348,60.191,84.338,59.532,83.919,59.134z M83.951,40.149c-0.408-0.419-1.068-0.429-1.486-0.021l-1.497,1.455  c-0.419,0.398-0.429,1.057-0.031,1.476c0.209,0.209,0.481,0.324,0.753,0.324c0.262,0,0.523-0.105,0.733-0.304l1.497-1.455  C84.338,41.227,84.348,40.568,83.951,40.149z"/></svg>